<svg width="317" height="48" viewBox="0 0 317 48" fill="none" xmlns="http://www.w3.org/2000/svg">
<path d="M181.185 0.850586V45.349H169.637V21.0994L159.832 37.9448H156.063L146.2 21.0994V45.349H134.652V0.850586H146.2L157.915 20.9767L169.629 0.850586H181.177H181.185Z" fill="#FF6600"/>
<path d="M11.5732 45.349H0V0.850586H18.6715C21.9259 0.850586 24.7818 1.49691 27.2393 2.78139C29.6967 4.06586 31.5896 5.84939 32.9262 8.11563C34.2629 10.3819 34.9353 12.9426 34.9353 15.7979C34.9353 18.8823 34.2961 21.5903 33.0092 23.9384C31.7224 26.2864 29.8627 28.1027 27.4302 29.4035C24.9977 30.7043 22.1252 31.3507 18.8043 31.3507H11.5732V45.349ZM20.664 20.3958C21.5025 19.954 22.1584 19.3323 22.6399 18.5469C23.1214 17.7614 23.3622 16.8779 23.3622 15.9043C23.3622 14.9307 23.1214 14.1535 22.6399 13.4335C22.1584 12.7135 21.5025 12.1572 20.6806 11.7563C19.8587 11.3554 18.9288 11.1509 17.8994 11.1509H11.5649V21.0667H17.8662C18.8956 21.0667 19.8255 20.8458 20.664 20.404V20.3958Z" fill="#FF6600"/>
<path d="M40.9131 45.349V0.850586H60.4231C63.5281 0.850586 66.2844 1.48873 68.6837 2.76502C71.083 4.04131 72.951 5.82485 74.2876 8.11563C75.6243 10.4064 76.2967 13.0326 76.2967 15.9861C76.2967 18.9396 75.7073 21.2385 74.5284 23.2511C73.3495 25.2637 71.6974 26.9082 69.5803 28.1763L77.5504 43.8518C78.3059 45.3408 78.2311 45.1853 78.3059 45.3408H65.2798C65.2798 45.3408 64.9726 44.6945 64.8315 44.3918L58.5302 31.1216C58.2064 31.1461 57.7498 31.1543 57.152 31.1543H52.4945V45.3408H40.9214L40.9131 45.349ZM62.0254 20.7395C63.1462 20.0195 63.9266 18.9641 64.3583 17.5733C64.4662 17.2215 64.5326 16.8451 64.5492 16.477C64.6489 14.5871 64.159 13.1472 63.0798 12.1736C62.0918 11.2736 60.8797 10.8237 59.4517 10.8237H52.4779V21.4921H59.3521C60.3401 21.4921 61.2284 21.2385 62.0171 20.7313L62.0254 20.7395ZM66.3342 45.349H65.2715C65.2715 45.349 64.9643 44.7026 64.8232 44.3999" fill="#FF6600"/>
<path d="M92.5356 43.0421C88.949 40.9722 86.118 38.1742 84.0508 34.648C81.9836 31.1219 80.9458 27.2521 80.9458 23.0223C80.9458 17.639 82.6228 12.8202 85.9852 8.57406C86.9233 7.38776 87.986 6.30782 89.1649 5.35879C93.565 1.78354 98.6542 0 104.449 0C108.791 0 112.76 1.02267 116.338 3.06801C119.916 5.11335 122.739 7.89501 124.806 11.413C126.873 14.931 127.911 18.8008 127.911 23.0223C127.911 27.2439 126.873 31.0973 124.806 34.6317C122.739 38.166 119.908 40.9722 116.321 43.0421C112.735 45.112 108.775 46.1428 104.449 46.1428C100.124 46.1428 96.1304 45.112 92.5439 43.0421H92.5356ZM110.261 33.6172C112.062 32.5536 113.498 31.081 114.569 29.2156C115.64 27.3503 116.18 25.2967 116.18 23.0551C116.18 20.8134 115.64 18.768 114.561 16.9109C113.482 15.0537 112.037 13.5892 110.236 12.5257C108.434 11.4621 106.508 10.9221 104.449 10.9221C102.39 10.9221 100.431 11.4539 98.6293 12.5257C96.8278 13.5974 95.3915 15.0537 94.3039 16.9109C93.2246 18.768 92.685 20.8134 92.685 23.0551C92.685 25.2967 93.2246 27.3421 94.3039 29.1993C95.3832 31.0564 96.8278 32.5209 98.6459 33.6008C100.456 34.6808 102.39 35.2125 104.449 35.2125C106.508 35.2125 108.467 34.6808 110.269 33.609L110.261 33.6172Z" fill="#FF6600"/>
<path d="M260.504 45.349H251.928C251.928 45.349 251.662 44.6617 251.538 44.3345L235.216 2.30687C235.149 2.1187 234.643 0.850586 234.643 0.850586H247.013C247.013 0.850586 247.237 1.51328 247.362 1.8978L256.685 29.2317H256.81L266.1 1.8978C266.216 1.546 266.44 0.850586 266.44 0.850586H278.844C278.844 0.850586 278.337 2.1187 278.279 2.30687L261.982 44.3345C261.849 44.6863 261.575 45.3408 261.575 45.3408C261.575 45.3408 260.853 45.3408 260.504 45.3408V45.349Z" fill="#FF6600"/>
<path d="M317 45.349H283.708V0.850586H316.518V11.1427H295.273V18.0805H311.886V27.7427H295.273V35.0568H317V45.349Z" fill="#FF6600"/>
<path d="M231.696 34.6317C233.763 31.0973 234.801 27.2275 234.801 23.0223C234.801 18.8171 233.763 14.931 231.696 11.413C229.628 7.89501 226.806 5.11335 223.227 3.06801C219.649 1.02267 215.689 0 211.339 0C205.552 0 200.463 1.78354 196.063 5.35879C194.892 6.31601 193.821 7.39594 192.883 8.57406C189.521 12.8202 187.844 17.639 187.844 23.0223C187.844 27.2439 188.882 31.1219 190.949 34.648C193.016 38.1742 195.847 40.9722 199.434 43.0421C203.02 45.112 206.988 46.1428 211.339 46.1428C213.638 46.1428 214.66 45.8319 214.66 45.8319L213.439 35.0244C213.439 35.0244 213.215 35.2207 211.339 35.2207C209.28 35.2207 207.345 34.6808 205.536 33.609C203.726 32.5291 202.281 31.0646 201.194 29.2074C200.114 27.3503 199.575 25.3049 199.575 23.0632C199.575 20.8215 200.114 18.7762 201.194 16.919C202.273 15.0619 203.717 13.5974 205.519 12.5338C207.321 11.4703 209.255 10.9303 211.339 10.9303C213.423 10.9303 215.324 11.4621 217.125 12.5338C218.927 13.5974 220.363 15.0619 221.451 16.919C222.53 18.7762 223.07 20.8215 223.07 23.0632C223.07 25.3049 222.53 27.3584 221.459 29.2238C220.488 30.9255 220.156 31.0973 220.156 31.0973L229.338 37.9042C229.338 37.9042 230.434 36.7997 231.696 34.648V34.6317Z" fill="#FF6600"/>
<path d="M218.545 36.0308L225.319 41.0214L223.285 41.2505L222.505 41.3405L221.866 41.4142L221.442 41.8969L220.853 42.5595L219.466 44.1222L218.545 36.0308ZM216.461 32.4556L216.627 33.9037L217.922 45.2512L218.238 48.0001L222.098 43.6231L222.688 42.9604L223.468 42.8704L229.661 42.175L227.063 40.2606L217.607 33.2901L216.461 32.4392V32.4556Z" fill="#FF6600"/>
</svg>
